<?xml version="1.0" encoding="UTF-8"?>
<!-- Generator: Adobe Illustrator 15.0.2, SVG Export Plug-In . SVG Version: 6.00 Build 0)  -->
<!DOCTYPE svg PUBLIC "-//W3C//DTD SVG 1.1//EN" "http://www.w3.org/Graphics/SVG/1.1/DTD/svg11.dtd">
<svg xmlns="http://www.w3.org/2000/svg" xmlns:xlink="http://www.w3.org/1999/xlink" version="1.1" id="Layer_1" x="0px" y="0px" width="511.999px" height="674.162px" viewBox="0 0 511.999 674.162" enable-background="new 0 0 511.999 674.162" xml:space="preserve">
<path d="M318.389,521.491l36.142,25.81l-5.924,0.942l5.924,4.229c-57.709,9.325-101.334,12.867-133.812,12.612  c-96.245,0.483-100.111-30.753-80.429-46.422c4.528-5.81,12.141-10.548,20.618-12.663  C160.907,547.301,256.426,531.81,318.389,521.491z M331.294,449.203l30.969,20.649c-67.136,23.224-108.276,24.6-144.883,24.357  c-98.244,0.396-111.569-27.618-93.168-40.319c2.783-4.382,8.51-7.975,16.045-9.86C150.582,485.331,233.195,464.693,331.294,449.203z   M388.098,485.331c0,0,31.479-20.307,55.161-43.16c9.605-9.962,17.197-20.128,19.694-29.122  c12.918-46.473-59.377-46.473-59.377-46.473c5.083-1.834,98.104-38.746,91.62,34.167c1.745,34.268-31.504,78.957-105.519,88.689  C387.461,489.815,386.187,488.389,388.098,485.331z M398.417,134.239l-6.752,5.516l-0.268,1.389l7.02-1.732  c-19.008,19.007-101.303,55.97-104.359,101.557l1.095,6.866c6.497,25.988,39.568,44.823,37.479,73.231  c1.312,17.765-10.663,39.142-52.97,68.76l1.758-4.98c-2.217,1.63-4.51,3.286-6.931,4.968l15.491-43.88  c10.332-30.981-41.301-41.307-41.301-82.613c0-28.543,13.479-51.206,32.18-68.919C322.708,150.163,398.417,134.239,398.417,134.239z   M315.803,0c17.898,19.879,24.676,38.995,23.976,57.301c3.096,79.168-138.017,143.647-140.144,190.533  c1.789,41.479,44.307,103.685,54.211,113.596l-11.102-9.07l11.102,14.229c0,0-6.038-4.624-14.949-12.369  c4.235,5.962,7.72,10.293,9.783,12.356c0,0-87.772-67.116-87.772-118.748c0-20.128,10.363-43.205,41.352-73.409  c17.083-17.529,41.3-37.511,74.83-60.83c4.14-2.886,7.898-5.924,11.299-9.076c38.715-41.753,22.256-99.354,22.256-99.354  c2.522,2.809,4.828,5.599,6.93,8.376c-0.892-5.274-1.771-8.37-1.771-8.37l1.503,1.694L315.803,0z M171.232,361.43l-18.949,7.414  c8.414-1.452,13.79-2.268,13.79-2.268c-1.427,0.535-2.835,1.07-4.236,1.605l9.396-1.593c-28.912,10.841-54.346,21.695-59.702,29.428  c9.159,9.656,80.932,9.3,284.312-13.949l-11.644,5.911c2.141-0.255,4.307-0.497,5.249-0.013l6.395-0.727  c0,0-58.905,38.014-206.068,37.39c-25.733,0.051-54.23-1.083-85.658-3.835c-51.995-8.356-58.575-17.707-45.689-26.268  C66.669,377.099,171.232,361.43,171.232,361.43z M98.95,557.619l-8.732,5.224c1.21-0.025,2.401-0.051,3.172,0.152l5.561-0.203  c0,0-25.943,13.605-29.415,26.115c2.517,7.897,17.931,14.395,60.396,15.185c278.804,5.172,340.767-36.153,340.767-36.153  l-8.738,9.452l8.738-4.28c-32.383,40.485-102.868,55.594-231.355,55.237c-36.657,0.025-78.137,3.898-124.901,1.554  C2.877,624.322-12.263,601.544,7.171,586.512C17.629,571.633,66.688,557.619,98.95,557.619z M511.999,609.264  c-33.3,47.594-131.774,65.25-217.14,64.894C193.176,674.361,98.95,660.883,98.95,655.736  C98.95,655.736,346.771,678.973,511.999,609.264z" fill="#000000"/>
</svg>
